<svg xmlns="http://www.w3.org/2000/svg" viewBox="0 0 512 512"><defs><style>.cls-1,.cls-3{fill:#f44336;}.cls-2{fill:#fff;}.cls-3{font-size:186.38px;font-family:CiutadellaRounded-Bd, Ciutadella Rounded;}</style></defs><title>icon_1</title><g id="Layer_2" data-name="Layer 2"><g id="Layer_1-2" data-name="Layer 1"><rect class="cls-1" width="512" height="512" rx="126.78"/><path class="cls-2" d="M408.09,259.21a43.82,43.82,0,0,0,12-46.6,42.64,42.64,0,0,0-36.6-29l-45-4a29.63,29.63,0,0,1-25-18.49l-18.06-44.58A42.41,42.41,0,0,0,256,89.6h0a42.38,42.38,0,0,0-39.41,26.81l-18.08,44.53a29.64,29.64,0,0,1-24.95,18.46l-44.87,4a42.69,42.69,0,0,0-36.75,29.07,43.84,43.84,0,0,0,12,46.57l35.95,32.6a29.83,29.83,0,0,1,9.07,28.54L138,369.25a43.6,43.6,0,0,0,17.36,45.32A42,42,0,0,0,202,415.68l38-24a29.93,29.93,0,0,1,31.81,0l38,24.07a42,42,0,0,0,46.73-1.08A43.6,43.6,0,0,0,374,369.41l-10.93-49.07a29.83,29.83,0,0,1,9.07-28.54Z"/><text class="cls-3" transform="translate(184.9 334.76)">ib</text></g></g></svg>