<svg xmlns="http://www.w3.org/2000/svg" viewBox="0 0 432 432"><defs><style>.cls-1,.cls-3{fill:#f44336;}.cls-2{fill:#fff;}.cls-3{font-size:157.26px;font-family:CiutadellaRounded-Bd, Ciutadella Rounded;}</style></defs><title>icon</title><g id="Layer_2" data-name="Layer 2"><g id="Layer_1-2" data-name="Layer 1"><rect class="cls-1" width="432" height="432"/><path class="cls-2" d="M344.33,218.71a37,37,0,0,0,10.09-39.32,36,36,0,0,0-30.89-24.5l-37.94-3.37a25,25,0,0,1-21.07-15.6L249.28,98.3A35.77,35.77,0,0,0,216,75.6h0a35.76,35.76,0,0,0-33.25,22.62L167.5,135.8a25,25,0,0,1-21.06,15.57l-37.85,3.37a36,36,0,0,0-31,24.52,37,37,0,0,0,10.08,39.3L118,246.06a25.18,25.18,0,0,1,7.65,24.09l-9.22,41.41a36.77,36.77,0,0,0,14.65,38.23,35.41,35.41,0,0,0,39.4.94l32.07-20.22a25.24,25.24,0,0,1,26.84,0l32.09,20.31a35.44,35.44,0,0,0,39.44-.91,36.79,36.79,0,0,0,14.65-38.25l-9.22-41.4A25.17,25.17,0,0,1,314,246.21Z"/><text class="cls-3" transform="translate(156.01 282.45)">ib</text></g></g></svg>